HIERARCHY
ROOT root
{
	OFFSET	0	13.1	24.9
	CHANNELS 6  Xposition Yposition Zposition Xrotation Yrotation Zrotation
	JOINT spine_1
	{
		OFFSET	0	9.99999	0
		CHANNELS 3  Xrotation Yrotation Zrotation
		JOINT spine_2
		{
			OFFSET	0	112	-10
			CHANNELS 3  Xrotation Yrotation Zrotation
			JOINT spine_3
			{
				OFFSET	0	206.5	19.3
				CHANNELS 3  Xrotation Yrotation Zrotation
				JOINT spine_4
				{
					OFFSET	0	110.4	14.6
					CHANNELS 3  Xrotation Yrotation Zrotation
					JOINT neck_1
					{
						OFFSET	0	71.8	-50.3
						CHANNELS 3  Xrotation Yrotation Zrotation
						JOINT neck_2
						{
							OFFSET	0	86.2	-25.8
							CHANNELS 3  Xrotation Yrotation Zrotation
							JOINT head_ee
							{
								OFFSET	0	179.8	-8.7
								CHANNELS 3  Xrotation Yrotation Zrotation
								End Site
								{
									OFFSET	1	0	0
								}
							}
						}
					}
					JOINT left_clavicle
					{
						OFFSET	-43.2	22.4	-70.8
						CHANNELS 3  Xrotation Yrotation Zrotation
						JOINT left_shoulder
						{
							OFFSET	-93.9	-5.79999	48.7
							CHANNELS 3  Xrotation Yrotation Zrotation
							JOINT left_elbow
							{
								OFFSET	-291.4	-30.8	15.2
								CHANNELS 3  Xrotation Yrotation Zrotation
								JOINT left_lowarm_twist
								{
									OFFSET	-110.7	-3.89999	13.6
									CHANNELS 3  Xrotation Yrotation Zrotation
									JOINT left_hand
									{
										OFFSET	-110.7	-3.89999	13.6
										CHANNELS 3  Xrotation Yrotation Zrotation
										JOINT left_ee
										{
											OFFSET	-80.8	-5.10001	12.1
											CHANNELS 3  Xrotation Yrotation Zrotation
											End Site
											{
												OFFSET	1	0	0
											}
										}
									}
								}
							}
						}
					}
					JOINT right_clavicle
					{
						OFFSET	43.2	22.4	-70.8
						CHANNELS 3  Xrotation Yrotation Zrotation
						JOINT right_shoulder
						{
							OFFSET	93.9	-5.79999	48.7
							CHANNELS 3  Xrotation Yrotation Zrotation
							JOINT right_elbow
							{
								OFFSET	291.4	-30.8	15.2
								CHANNELS 3  Xrotation Yrotation Zrotation
								JOINT right_lowarm_twist
								{
									OFFSET	110.7	-3.89999	13.6
									CHANNELS 3  Xrotation Yrotation Zrotation
									JOINT right_hand
									{
										OFFSET	110.7	-3.89999	13.6
										CHANNELS 3  Xrotation Yrotation Zrotation
										JOINT right_ee
										{
											OFFSET	80.8	-5.10001	12.1
											CHANNELS 3  Xrotation Yrotation Zrotation
											End Site
											{
												OFFSET	1	0	0
											}
										}
									}
								}
							}
						}
					}
				}
			}
		}
	}
	JOINT left_hip
	{
		OFFSET	-82.8	-127.5	0.300001
		CHANNELS 3  Xrotation Yrotation Zrotation
		JOINT left_knee
		{
			OFFSET	-28.2	-396.7	2.2
			CHANNELS 3  Xrotation Yrotation Zrotation
			JOINT left_ankle
			{
				OFFSET	-11.7	-411.3	35.4
				CHANNELS 3  Xrotation Yrotation Zrotation
				JOINT left_toes
				{
					OFFSET	0	-60	-88.6
					CHANNELS 3  Xrotation Yrotation Zrotation
					JOINT left_foot_ee
					{
						OFFSET	-22.5	-16.5	-42.2
						CHANNELS 3  Xrotation Yrotation Zrotation
						End Site
						{
							OFFSET	1	0	0
						}
					}
				}
			}
		}
	}
	JOINT right_hip
	{
		OFFSET	82.8	-127.5	0.300001
		CHANNELS 3  Xrotation Yrotation Zrotation
		JOINT right_knee
		{
			OFFSET	28.2	-396.7	2.2
			CHANNELS 3  Xrotation Yrotation Zrotation
			JOINT right_ankle
			{
				OFFSET	11.7	-411.3	35.4
				CHANNELS 3  Xrotation Yrotation Zrotation
				JOINT right_toes
				{
					OFFSET	0	-60	-88.6
					CHANNELS 3  Xrotation Yrotation Zrotation
					JOINT right_foot_ee
					{
						OFFSET	22.5	-16.5	-42.2
						CHANNELS 3  Xrotation Yrotation Zrotation
						End Site
						{
							OFFSET	1	0	0
						}
					}
				}
			}
		}
	}
}
MOTION
Frames: 15
Frame Time: 0.02
1419.3 684.987 -666.796 161.37 -63.9834 166.566 -2.85203 -0.12138 -1.46922 -2.85083 -0.0276541 -1.47396 -2.84871 0.354384 -1.431 -2.85154 0.123962 -1.469 -19.2789 -1.59695 -2.54299 -19.2643 -1.75274 -3.01064 -0.0 0.0 -0.0 5.58658 11.7611 10.8501 6.87271 -15.6315 56.867 3.90226 -62.6295 2.37457 -83.8716 -8.31058 5.21091 -3.97589 28.5514 -10.3878 -0.0 0.0 -0.0 8.60009 15.3517 -16.5891 -17.0868 5.31639 -60.5237 0.240247 6.7871 -0.0142462 79.0891 3.73392 8.55759 -1.323 -28.7731 -4.0741 0.0 0.0 0.0 -22.1556 39.2568 -1.23634 -7.75995 0.240861 1.16566 37.3898 -29.9549 -5.65161 -15.9987 0.0 0.0 -0.0 0.0 -0.0 32.0815 21.4551 -16.0649 -18.9397 -0.306748 -2.87706 -11.3527 9.29629 -1.78276 7.19412 -0.0 -0.0 0.0 0.0 0.0 
1431.72 688.636 -659.317 161.285 -64.2946 166.573 -2.70906 0.00107309 -1.39572 -2.70798 0.0898758 -1.39283 -2.70908 0.443738 -1.32332 -2.71145 0.229196 -1.37678 -20.8722 -2.22638 -3.13888 -20.855 -2.74819 -3.87285 -0.0 0.0 -0.0 5.40729 11.4025 10.5457 5.15057 -15.4091 57.8551 3.82096 -62.1347 2.30253 -85.1171 -8.46655 5.18169 -3.90803 28.7191 -9.90873 -0.0 0.0 -0.0 8.70641 14.4701 -16.866 -14.2921 6.26299 -60.8907 0.253798 7.16604 -0.0158921 79.7136 3.80556 8.59354 -1.53272 -28.966 -3.03222 0.0 0.0 0.0 -21.1716 38.6395 -2.91832 -10.356 0.28593 1.56144 36.4668 -30.1705 -5.56919 -16.4171 0.0 0.0 -0.0 0.0 -0.0 31.1639 21.2803 -16.3172 -19.3766 -0.302536 -2.94395 -9.86559 9.12246 -1.5446 6.47465 -0.0 -0.0 0.0 0.0 0.0 
1450.66 695.548 -653.95 159.719 -64.6793 164.962 -2.69801 -0.101469 -1.29405 -2.69708 -0.0189266 -1.29788 -2.6956 0.313911 -1.2595 -2.69779 0.111074 -1.29326 -18.7902 -2.84732 -4.06345 -18.7566 -3.3331 -4.90863 -0.0 0.0 -0.0 5.08167 12.2816 9.98048 3.27531 -14.9632 58.8894 3.54194 -60.3044 2.05794 -85.1912 -8.47582 5.17984 -3.81844 28.6019 -9.49084 -0.0 0.0 -0.0 8.57947 14.4219 -16.5909 -12.3111 6.73869 -61.4629 0.211056 5.9688 -0.0110034 78.4866 3.6652 8.52217 -2.39981 -28.5858 1.80665 0.0 0.0 0.0 -20.4609 38.2835 -4.43014 -13.7554 0.317755 2.08198 34.2323 -29.9749 -5.31014 -17.1901 0.0 0.0 -0.0 0.0 -0.0 29.899 21.232 -15.6644 -20.6041 -0.287969 -3.13173 -11.1063 6.71274 -1.72006 6.57939 -0.0 -0.0 0.0 0.0 0.0 
1472.51 696.246 -646.763 159.539 -65.4547 164.561 -2.53169 -0.217569 -1.2671 -2.53081 -0.136506 -1.27837 -2.52666 0.191476 -1.2713 -2.52891 -0.0116877 -1.28558 -17.559 -3.68596 -4.61976 -17.5207 -4.54351 -5.69393 -0.0 0.0 -0.0 4.88094 12.3461 9.63923 1.39873 -14.6628 60.0276 3.21764 -57.8837 1.77962 -85.1119 -8.46591 5.18182 -3.68655 27.8943 -9.20118 -0.0 0.0 -0.0 8.60852 13.7016 -16.6876 -10.6745 7.02338 -62.3078 0.199953 5.6569 -0.00987893 79.221 3.74902 8.56525 -2.39505 -28.6066 1.7704 0.0 0.0 0.0 -20.5937 38.1626 -4.32497 -16.6792 0.320394 2.53052 31.6833 -28.7359 -4.93671 -16.8276 0.0 0.0 -0.0 0.0 -0.0 29.608 21.1339 -15.4161 -23.0538 -0.246888 -3.50536 -10.1989 4.43724 -1.56174 7.03014 -0.0 -0.0 0.0 0.0 0.0 
1492.96 700.715 -641.033 158.382 -66.5089 163.656 -2.49714 -0.157238 -1.26551 -2.49625 -0.076398 -1.27295 -2.49352 0.247546 -1.25099 -2.4957 0.0468859 -1.27438 -17.0703 -4.13683 -5.20592 -17.0194 -5.03763 -6.38224 -0.0 0.0 -0.0 4.5425 12.6553 9.06776 -0.137771 -14.4781 61.7426 3.09172 -56.8461 1.67358 -85.0303 -8.45572 5.18384 -3.46069 26.2092 -8.95347 -0.0 0.0 -0.0 8.66854 13.6446 -16.8209 -8.77225 7.42598 -62.5287 0.241084 6.81052 -0.0143452 79.3801 3.76726 8.57444 -2.51741 -28.8184 2.31935 0.0 0.0 0.0 -18.6105 36.719 -6.75701 -19.7718 0.298285 3.00444 30.3375 -26.1778 -4.63582 -17.4715 0.0 0.0 -0.0 0.0 -0.0 28.3875 21.1168 -15.3221 -24.2833 -0.220257 -3.69215 -7.67181 3.61512 -1.16649 7.77842 -0.0 -0.0 0.0 0.0 0.0 
1509.83 704.642 -635.537 159.631 -66.6082 165.819 -2.48863 -0.208982 -1.56005 -2.48729 -0.109302 -1.57018 -2.48271 0.290494 -1.54695 -2.48605 0.042569 -1.5734 -12.7335 -4.63193 -4.19474 -12.7072 -6.15373 -5.36482 -0.0 0.0 -0.0 4.48601 15.924 8.98266 -1.40511 -14.2487 62.9449 2.92456 -55.3735 1.53481 -85.052 -8.45843 5.1833 -2.9505 24.1338 -7.23674 -0.0 0.0 -0.0 8.41025 14.1673 -16.2341 -7.49718 7.59001 -62.5757 0.321276 9.04301 -0.0254064 79.4084 3.77051 8.57607 -2.82534 -28.6239 4.08065 0.0 0.0 0.0 -16.708 33.9246 -8.48638 -22.4734 0.258065 3.417 26.1695 -20.813 -3.89863 -18.8065 0.0 0.0 -0.0 0.0 -0.0 28.8093 23.2569 -17.4359 -26.1523 -0.172109 -3.97492 -2.01874 1.37864 -0.301242 7.01277 -0.0 -0.0 0.0 0.0 0.0 
1528.23 709.055 -627.684 159.849 -67.0374 165.72 -2.59067 -0.0625904 -1.28396 -2.58975 0.0192314 -1.28534 -2.58922 0.345296 -1.23825 -2.59133 0.145421 -1.27724 -11.442 -3.86899 -4.15505 -11.4043 -4.60837 -5.05583 -0.0 0.0 -0.0 4.57368 18.653 9.10288 -4.15276 -16.0408 62.1132 2.82708 -54.4608 1.45504 -85.1325 -8.46848 5.18131 -2.6741 21.6004 -7.00068 -0.0 0.0 -0.0 8.22298 12.2526 -15.9119 -6.11548 8.11216 -63.2864 0.364791 10.2434 -0.0326961 77.4924 3.55259 8.46214 -2.94584 -28.6539 4.71492 0.0 0.0 0.0 -15.2195 33.509 -9.46388 -25.0655 0.201228 3.81069 22.4744 -17.6682 -3.33308 -21.5194 0.0 0.0 -0.0 0.0 -0.0 27.0769 25.481 -17.9305 -24.0563 -0.225475 -3.65771 0.0314839 -3.1986 0.00462616 4.95116 -0.0 -0.0 0.0 0.0 0.0 
1544.88 711.69 -621.985 160.069 -67.9851 165.933 -2.61931 -0.056224 -1.23301 -2.61846 0.0223436 -1.23409 -2.61805 0.335874 -1.18772 -2.61999 0.144095 -1.22585 -11.1378 -4.50377 -4.43963 -11.0973 -5.59333 -5.48873 -0.0 0.0 -0.0 4.32059 19.509 8.71078 -6.03108 -15.8268 62.8044 2.81592 -54.3536 1.44596 -85.1091 -8.46556 5.18189 -2.50463 20.5572 -6.54586 -0.0 0.0 -0.0 8.34767 11.1954 -16.22 -4.62822 8.50151 -63.2266 0.42615 11.9204 -0.0444912 76.9127 3.48742 8.42624 -2.97564 -28.5536 4.93152 0.0 0.0 0.0 -14.1418 31.1486 -10.6658 -27.1064 0.143976 4.11865 20.1233 -15.5792 -2.97541 -21.5132 0.0 0.0 -0.0 0.0 -0.0 26.9521 27.4405 -18.6134 -24.6421 -0.21173 -3.74655 2.06388 -6.15614 0.300703 3.20672 -0.0 -0.0 0.0 0.0 0.0 
1559.29 718.267 -616.554 159.418 -68.7036 165.544 -2.62637 -0.0120507 -1.18542 -2.62559 0.0633994 -1.18378 -2.62612 0.362927 -1.12856 -2.62785 0.18015 -1.17171 -9.16807 -4.59199 -4.23359 -9.12808 -5.69652 -5.23132 -0.0 0.0 -0.0 4.59751 19.6636 9.12592 -6.44307 -14.3913 62.9735 2.38886 -49.7933 1.10883 -85.1199 -8.46691 5.18162 -2.1732 18.1271 -5.79147 -0.0 0.0 -0.0 8.47751 10.8027 -16.5124 -2.3961 8.43539 -63.6085 0.501835 13.9606 -0.061443 76.394 3.42942 8.39357 -2.99824 -28.5438 5.05931 0.0 0.0 0.0 -12.3083 29.9362 -12.6262 -28.5653 0.0963386 4.33747 16.6862 -11.1966 -2.43875 -24.5442 0.0 0.0 -0.0 0.0 -0.0 25.5393 29.472 -19.0275 -23.2739 -0.242414 -3.53885 2.69979 -8.07289 0.392416 3.66309 -0.0 -0.0 0.0 0.0 0.0 
1570.35 722.232 -611.418 158.72 -69.022 164.787 -2.66423 -0.0289154 -0.996782 -2.66368 0.0345679 -0.996602 -2.66371 0.287967 -0.954722 -2.66496 0.13358 -0.988215 -9.35238 -4.06063 -3.36293 -9.32966 -5.31552 -4.2606 -0.0 0.0 -0.0 4.5825 20.7681 9.08581 -7.00933 -14.1974 63.4479 2.15472 -46.8609 0.933882 -84.8484 -8.43297 5.18828 -1.93776 16.4652 -5.17031 -0.0 0.0 -0.0 8.5531 10.5281 -16.6833 -0.858588 8.87188 -64.1722 0.574392 15.8832 -0.080129 76.1149 3.39833 8.37577 -3.00064 -28.6325 5.02294 0.0 0.0 0.0 -10.6559 28.3886 -14.1055 -30.5738 0.0216616 4.63665 15.2334 -8.51744 -2.2089 -25.8295 0.0 0.0 -0.0 0.0 -0.0 24.4165 30.8975 -19.5551 -21.7432 -0.270853 -3.30568 4.4681 -9.50043 0.646441 2.43418 -0.0 -0.0 0.0 0.0 0.0 
1576.99 719.943 -610.747 157.313 -68.6733 162.847 -2.75265 0.0468663 -0.83184 -2.75227 0.0997017 -0.827173 -2.75336 0.308876 -0.773793 -2.75415 0.182798 -0.81286 -9.30816 -3.4092 -3.34911 -9.28238 -4.09783 -4.09091 -0.0 0.0 -0.0 4.79181 21.6317 9.37338 -7.72055 -13.9194 63.4865 1.9637 -44.2041 0.797522 -83.5078 -8.2649 5.21879 -1.44358 13.7713 -3.37595 -0.0 0.0 -0.0 8.52896 10.5194 -16.6316 0.390376 9.63839 -64.3234 0.673931 18.4614 -0.109525 75.7367 3.35634 8.35141 -2.99343 -28.7247 4.93281 0.0 0.0 0.0 -7.00942 26.5643 -16.5334 -38.5017 -0.374207 5.78739 17.3555 -5.40295 -2.45808 -27.897 0.0 0.0 -0.0 0.0 -0.0 23.1376 32.4332 -18.9521 -21.9397 -0.267551 -3.33566 6.0553 -10.6116 0.872599 2.09697 -0.0 -0.0 0.0 0.0 0.0 
1587.57 719.865 -614.079 156.568 -69.1988 161.093 -2.9019 -0.140536 -0.631549 -2.90168 -0.100065 -0.639212 -2.90026 0.0691553 -0.64329 -2.90083 -0.0333061 -0.646138 -11.4398 -2.61385 -2.83528 -11.4221 -3.09462 -3.44402 -0.0 0.0 -0.0 4.90381 22.3411 9.51478 -8.28135 -14.2293 64.0389 1.71052 -40.2725 0.627229 -82.6517 -8.15717 5.23619 -0.97312 12.1662 -1.13898 -0.0 0.0 -0.0 8.08733 9.13571 -15.7241 2.01024 13.907 -65.1552 0.89744 23.968 -0.190498 76.4054 3.43069 8.39429 -2.81196 -28.7996 3.91325 0.0 0.0 0.0 -3.8183 25.9097 -16.9373 -42.7872 -0.653543 6.38399 17.5904 -2.88576 -2.46661 -31.3313 0.0 0.0 -0.0 0.0 -0.0 22.101 33.8132 -17.4883 -22.0696 -0.265312 -3.35547 7.23272 -14.7335 1.04458 1.56896 -0.0 -0.0 0.0 0.0 0.0 
1597.49 718.843 -613.875 155.268 -69.6696 159.166 -2.95339 -0.2023 -0.587488 -2.95321 -0.164507 -0.59917 -2.95119 -0.00291882 -0.621335 -2.95171 -0.101009 -0.613077 -11.6351 -2.05788 -2.77652 -11.6158 -2.09209 -3.23959 -0.0 0.0 -0.0 5.07349 21.4782 9.78801 -8.77241 -14.4321 64.3698 1.39449 -34.6345 0.434816 -80.3035 -7.86033 5.27555 -0.67322 11.5673 0.499582 -0.0 0.0 -0.0 8.13889 9.3866 -15.8273 3.24306 14.7339 -65.7566 1.00731 26.5183 -0.237366 77.2082 3.5206 8.44463 -2.32287 -26.981 2.20425 0.0 0.0 0.0 -0.675235 27.1046 -18.5164 -46.0168 -0.893224 6.81915 22.1365 0.597638 -3.01029 -33.9146 0.0 0.0 -0.0 0.0 -0.0 20.3374 34.883 -16.4751 -21.9928 -0.266641 -3.34376 9.97072 -16.4929 1.4335 1.86963 -0.0 -0.0 0.0 0.0 0.0 
1606.43 721.014 -613.79 154.639 -69.7236 157.576 -2.96181 -0.193913 -0.33889 -2.96176 -0.171956 -0.350542 -2.96059 -0.0747485 -0.383225 -2.96077 -0.134333 -0.366611 -12.0398 -1.58486 -2.52105 -12.023 -1.38312 -2.86771 -0.0 0.0 -0.0 5.09801 21.2539 9.83138 -9.14862 -14.3897 64.67 1.16844 -30.0618 0.313769 -78.7425 -7.6621 5.29491 -0.46812 11.41 1.73452 -0.0 0.0 -0.0 8.18256 9.54125 -15.9163 4.18876 16.5117 -66.4933 1.15506 29.7764 -0.307093 78.0263 3.61293 8.49462 -1.91664 -25.6859 0.591783 0.0 0.0 0.0 1.53389 27.7878 -19.1417 -47.7028 -1.02804 7.04086 24.8573 3.00852 -3.32089 -36.1514 0.0 0.0 -0.0 0.0 -0.0 18.991 35.5622 -15.7456 -22.0798 -0.265135 -3.35701 11.9518 -18.3775 1.7164 2.08462 -0.0 -0.0 0.0 0.0 0.0 
1617.09 725.416 -609.182 152.803 -70.0529 155.435 -3.14408 -0.190754 -0.19448 -3.14407 -0.177992 -0.206225 -3.14339 -0.117371 -0.245833 -3.14344 -0.154722 -0.224212 -12.6412 -1.14656 -2.30643 -12.6265 -0.717041 -2.54121 -0.0 0.0 -0.0 5.13316 20.7975 9.89832 -9.81438 -14.4294 65.1925 0.973852 -25.753 0.222627 -77.6511 -7.52316 5.3052 -0.355258 11.7219 2.58094 -0.0 0.0 -0.0 8.24163 9.43285 -16.0453 4.57943 17.9536 -67.0435 1.22749 31.3009 -0.343898 78.7845 3.69913 8.53977 -1.54609 -24.8426 -1.09246 0.0 0.0 0.0 3.21582 28.8517 -19.9005 -46.7104 -0.947888 6.91083 27.2636 4.7392 -3.59014 -37.6905 0.0 0.0 -0.0 0.0 -0.0 17.0417 36.187 -14.9803 -21.973 -0.266981 -3.34073 14.2101 -19.2217 2.03026 2.24247 -0.0 -0.0 0.0 0.0 0.0 
